<mxfile host="app.diagrams.net" modified="2021-06-24T13:18:07.012Z" agent="5.0 (X11; Linux x86_64) AppleWebKit/537.36 (KHTML, like Gecko) Chrome/91.0.4472.114 Safari/537.36" etag="zpSD99MuRMAcD0dbX3Ej" version="14.6.13" type="github">
  <diagram id="T8yihV_5Uo5nekOe2vEH" name="Page-1">
    <mxGraphModel dx="1268" dy="801" grid="0" gridSize="10" guides="1" tooltips="1" connect="1" arrows="1" fold="1" page="0" pageScale="1" pageWidth="850" pageHeight="1100" math="0" shadow="0">
      <root>
        <mxCell id="0" />
        <mxCell id="1" parent="0" />
        <mxCell id="_tj-XaufruGv8r-lq4Wu-4" value="" style="edgeStyle=orthogonalEdgeStyle;rounded=0;orthogonalLoop=1;jettySize=auto;html=1;" edge="1" parent="1" source="_tj-XaufruGv8r-lq4Wu-1" target="_tj-XaufruGv8r-lq4Wu-5">
          <mxGeometry relative="1" as="geometry">
            <mxPoint x="204" y="-35" as="targetPoint" />
          </mxGeometry>
        </mxCell>
        <mxCell id="_tj-XaufruGv8r-lq4Wu-1" value="" style="ellipse;html=1;shape=endState;fillColor=#000000;strokeColor=#ff0000;fontStyle=1" vertex="1" parent="1">
          <mxGeometry x="29" y="-50" width="30" height="30" as="geometry" />
        </mxCell>
        <mxCell id="_tj-XaufruGv8r-lq4Wu-2" value="Đăng nhập" style="text;html=1;strokeColor=none;fillColor=none;align=center;verticalAlign=middle;whiteSpace=wrap;rounded=0;fontStyle=1" vertex="1" parent="1">
          <mxGeometry x="-1.5" y="-13" width="91" height="20" as="geometry" />
        </mxCell>
        <mxCell id="_tj-XaufruGv8r-lq4Wu-7" value="" style="edgeStyle=orthogonalEdgeStyle;rounded=0;orthogonalLoop=1;jettySize=auto;html=1;" edge="1" parent="1" source="_tj-XaufruGv8r-lq4Wu-5" target="_tj-XaufruGv8r-lq4Wu-6">
          <mxGeometry relative="1" as="geometry" />
        </mxCell>
        <mxCell id="_tj-XaufruGv8r-lq4Wu-17" value="" style="edgeStyle=orthogonalEdgeStyle;rounded=0;orthogonalLoop=1;jettySize=auto;html=1;" edge="1" parent="1" source="_tj-XaufruGv8r-lq4Wu-5" target="_tj-XaufruGv8r-lq4Wu-18">
          <mxGeometry relative="1" as="geometry">
            <mxPoint x="496" y="-35" as="targetPoint" />
          </mxGeometry>
        </mxCell>
        <mxCell id="_tj-XaufruGv8r-lq4Wu-5" value="Chọn phương thức đăng nhập." style="rhombus;whiteSpace=wrap;html=1;fontStyle=1" vertex="1" parent="1">
          <mxGeometry x="164" y="-75" width="126" height="80" as="geometry" />
        </mxCell>
        <mxCell id="_tj-XaufruGv8r-lq4Wu-10" value="" style="edgeStyle=orthogonalEdgeStyle;rounded=0;orthogonalLoop=1;jettySize=auto;html=1;" edge="1" parent="1" source="_tj-XaufruGv8r-lq4Wu-6">
          <mxGeometry relative="1" as="geometry">
            <mxPoint x="160" y="-38" as="targetPoint" />
          </mxGeometry>
        </mxCell>
        <mxCell id="_tj-XaufruGv8r-lq4Wu-12" value="" style="edgeStyle=orthogonalEdgeStyle;rounded=0;orthogonalLoop=1;jettySize=auto;html=1;" edge="1" parent="1" source="_tj-XaufruGv8r-lq4Wu-6">
          <mxGeometry relative="1" as="geometry">
            <mxPoint x="553" y="107" as="targetPoint" />
          </mxGeometry>
        </mxCell>
        <mxCell id="_tj-XaufruGv8r-lq4Wu-6" value="Nhập mật khẩu" style="whiteSpace=wrap;html=1;fontStyle=1;" vertex="1" parent="1">
          <mxGeometry x="186.5" y="83" width="81" height="47" as="geometry" />
        </mxCell>
        <mxCell id="_tj-XaufruGv8r-lq4Wu-8" value="&lt;b&gt;Vào giao diện App&lt;/b&gt;" style="rounded=0;whiteSpace=wrap;html=1;" vertex="1" parent="1">
          <mxGeometry x="555" y="70" width="120" height="60" as="geometry" />
        </mxCell>
        <mxCell id="_tj-XaufruGv8r-lq4Wu-13" value="&lt;b&gt;Sai&lt;/b&gt;" style="text;html=1;strokeColor=none;fillColor=none;align=center;verticalAlign=middle;whiteSpace=wrap;rounded=0;" vertex="1" parent="1">
          <mxGeometry x="124" y="36" width="40" height="20" as="geometry" />
        </mxCell>
        <mxCell id="_tj-XaufruGv8r-lq4Wu-14" value="&lt;b&gt;Đúng&lt;/b&gt;" style="text;html=1;strokeColor=none;fillColor=none;align=center;verticalAlign=middle;whiteSpace=wrap;rounded=0;" vertex="1" parent="1">
          <mxGeometry x="371" y="72" width="40" height="20" as="geometry" />
        </mxCell>
        <mxCell id="_tj-XaufruGv8r-lq4Wu-15" value="&lt;b&gt;Mận khẩu&lt;/b&gt;" style="text;html=1;strokeColor=none;fillColor=none;align=center;verticalAlign=middle;whiteSpace=wrap;rounded=0;" vertex="1" parent="1">
          <mxGeometry x="227.5" y="29" width="40" height="20" as="geometry" />
        </mxCell>
        <mxCell id="_tj-XaufruGv8r-lq4Wu-16" value="&lt;b&gt;Khuôn mặt&lt;/b&gt;" style="text;html=1;strokeColor=none;fillColor=none;align=center;verticalAlign=middle;whiteSpace=wrap;rounded=0;" vertex="1" parent="1">
          <mxGeometry x="321" y="-60" width="40" height="20" as="geometry" />
        </mxCell>
        <mxCell id="_tj-XaufruGv8r-lq4Wu-20" value="" style="edgeStyle=orthogonalEdgeStyle;rounded=0;orthogonalLoop=1;jettySize=auto;html=1;entryX=0.5;entryY=0;entryDx=0;entryDy=0;" edge="1" parent="1" source="_tj-XaufruGv8r-lq4Wu-18" target="_tj-XaufruGv8r-lq4Wu-8">
          <mxGeometry relative="1" as="geometry">
            <mxPoint x="613" y="-35" as="targetPoint" />
          </mxGeometry>
        </mxCell>
        <mxCell id="_tj-XaufruGv8r-lq4Wu-22" value="" style="edgeStyle=orthogonalEdgeStyle;rounded=0;orthogonalLoop=1;jettySize=auto;html=1;" edge="1" parent="1" source="_tj-XaufruGv8r-lq4Wu-18">
          <mxGeometry relative="1" as="geometry">
            <mxPoint x="164" y="-35" as="targetPoint" />
            <Array as="points">
              <mxPoint x="468" y="-129" />
              <mxPoint x="164" y="-129" />
            </Array>
          </mxGeometry>
        </mxCell>
        <mxCell id="_tj-XaufruGv8r-lq4Wu-18" value="gọi API" style="rounded=0;whiteSpace=wrap;html=1;fontStyle=1" vertex="1" parent="1">
          <mxGeometry x="436" y="-65" width="64" height="60" as="geometry" />
        </mxCell>
        <mxCell id="_tj-XaufruGv8r-lq4Wu-23" value="&lt;b&gt;Đúng&lt;/b&gt;" style="text;html=1;strokeColor=none;fillColor=none;align=center;verticalAlign=middle;whiteSpace=wrap;rounded=0;" vertex="1" parent="1">
          <mxGeometry x="569" y="-60" width="40" height="20" as="geometry" />
        </mxCell>
        <mxCell id="_tj-XaufruGv8r-lq4Wu-25" value="&lt;b&gt;Sai&lt;/b&gt;" style="text;html=1;strokeColor=none;fillColor=none;align=center;verticalAlign=middle;whiteSpace=wrap;rounded=0;" vertex="1" parent="1">
          <mxGeometry x="296" y="-119" width="40" height="20" as="geometry" />
        </mxCell>
      </root>
    </mxGraphModel>
  </diagram>
</mxfile>
